<svg width="21" height="20" viewBox="0 0 21 20" fill="none" xmlns="http://www.w3.org/2000/svg">
<g id="material-symbols-light:fax-outline">
<path id="Vector" d="M3.78551 18.208C3.11462 18.208 2.54482 17.973 2.0761 17.5029C1.6061 17.0342 1.37109 16.4644 1.37109 15.7935V9.03317C1.37109 8.36229 1.6061 7.79248 2.0761 7.32376C2.54418 6.85376 3.11398 6.61876 3.78551 6.61876C4.18276 6.61876 4.54718 6.70728 4.87876 6.88434C5.21034 7.0614 5.49427 7.29479 5.73057 7.58452H7.16569V3.08984H15.8576V7.58452H17.3062C17.9771 7.58452 18.5469 7.81952 19.0157 8.28953C19.4857 8.75825 19.7207 9.32805 19.7207 9.99894V17.2422H5.73057C5.49363 17.5319 5.20969 17.7653 4.87876 17.9424C4.54782 18.1194 4.18341 18.208 3.78551 18.208ZM3.78551 17.2422C4.18276 17.2422 4.52368 17.1002 4.80826 16.8163C5.09219 16.5317 5.23416 16.1908 5.23416 15.7935V9.03317C5.23416 8.63592 5.09219 8.295 4.80826 8.01043C4.52368 7.72649 4.18276 7.58452 3.78551 7.58452C3.38826 7.58452 3.04734 7.72649 2.76276 8.01043C2.47883 8.295 2.33686 8.63592 2.33686 9.03317V15.7935C2.33686 16.1908 2.47883 16.5317 2.76276 16.8163C3.04734 17.1002 3.38826 17.2422 3.78551 17.2422ZM8.13146 7.58452H14.8918V4.05561H8.13146V7.58452ZM6.19993 16.2764H18.7549V9.99894C18.7549 9.60169 18.6129 9.26077 18.329 8.97619C18.0444 8.69226 17.7035 8.55029 17.3062 8.55029H6.19993V16.2764ZM13.4432 11.9305C13.7168 11.9305 13.9463 11.8378 14.1318 11.6523C14.3172 11.4669 14.4096 11.2377 14.4089 10.9647C14.4083 10.6917 14.3156 10.4625 14.1308 10.2771C13.946 10.0917 13.7168 9.99894 13.4432 9.99894C13.1695 9.99894 12.9403 10.0917 12.7556 10.2771C12.5708 10.4625 12.4781 10.6917 12.4774 10.9647C12.4768 11.2377 12.5695 11.4672 12.7556 11.6533C12.9416 11.8394 13.1708 11.9318 13.4432 11.9305ZM16.3405 11.9305C16.6141 11.9305 16.8436 11.8378 17.0291 11.6523C17.2145 11.4669 17.3069 11.2377 17.3062 10.9647C17.3056 10.6917 17.2129 10.4625 17.0281 10.2771C16.8433 10.0917 16.6141 9.99894 16.3405 9.99894C16.0668 9.99894 15.8376 10.0917 15.6529 10.2771C15.4681 10.4625 15.3754 10.6917 15.3747 10.9647C15.3741 11.2377 15.4668 11.4672 15.6529 11.6533C15.8389 11.8394 16.0681 11.9318 16.3405 11.9305ZM13.4432 14.8278C13.7168 14.8278 13.9463 14.7351 14.1318 14.5496C14.3172 14.3642 14.4096 14.135 14.4089 13.862C14.4083 13.589 14.3156 13.3598 14.1308 13.1744C13.946 12.989 13.7168 12.8962 13.4432 12.8962C13.1695 12.8962 12.9403 12.989 12.7556 13.1744C12.5708 13.3598 12.4781 13.589 12.4774 13.862C12.4768 14.135 12.5695 14.3645 12.7556 14.5506C12.9416 14.7367 13.1708 14.8291 13.4432 14.8278ZM16.3405 14.8278C16.6141 14.8278 16.8436 14.7351 17.0291 14.5496C17.2145 14.3642 17.3069 14.135 17.3062 13.862C17.3056 13.589 17.2129 13.3598 17.0281 13.1744C16.8433 12.989 16.6141 12.8962 16.3405 12.8962C16.0668 12.8962 15.8376 12.989 15.6529 13.1744C15.4681 13.3598 15.3754 13.589 15.3747 13.862C15.3741 14.135 15.4668 14.3645 15.6529 14.5506C15.8389 14.7367 16.0681 14.8291 16.3405 14.8278ZM7.64858 14.8278H11.5116V9.99894H7.64858V14.8278Z" fill="#375C91"/>
</g>
</svg>
