<svg width="30" height="36" viewBox="0 0 30 36" fill="none" xmlns="http://www.w3.org/2000/svg">
<path id="Vector" d="M28.7655 9.02813C29.0065 9.2692 29.1431 9.59464 29.1431 9.93616V34.7143C29.1431 35.4254 28.5686 36 27.8574 36H2.14314C1.43198 36 0.857422 35.4254 0.857422 34.7143V1.28571C0.857422 0.574554 1.43198 0 2.14314 0H19.207C19.5485 0 19.878 0.136607 20.119 0.377679L28.7655 9.02813ZM26.178 10.5268L18.6164 2.96518V10.5268H26.178ZM19.8707 23.0328C19.2608 23.0127 18.6123 23.0597 17.8759 23.1517C16.8995 22.5494 16.2422 21.7221 15.7753 20.5067L15.8183 20.3308L15.8681 20.1226C16.0409 19.3942 16.1337 18.8626 16.1614 18.3267C16.1823 17.9221 16.1598 17.5488 16.0879 17.2029C15.9553 16.4559 15.427 16.0192 14.7612 15.9923C14.1405 15.967 13.5699 16.3137 13.4241 16.8509C13.1866 17.7196 13.3256 18.8626 13.8291 20.8121C13.1878 22.3409 12.3405 24.1333 11.7719 25.1329C11.013 25.5242 10.4219 25.8802 9.92532 26.2748C9.27041 26.7959 8.86139 27.3315 8.7489 27.894C8.69425 28.1547 8.77662 28.4954 8.96425 28.7747C9.1772 29.0913 9.49782 29.297 9.88233 29.3267C10.8526 29.4019 12.0451 28.4014 13.3618 26.1422C13.494 26.098 13.6338 26.0514 13.8046 25.9935L14.2827 25.832C14.5852 25.73 14.8046 25.6568 15.0216 25.5865C15.9618 25.2804 16.6729 25.0871 17.3198 24.977C18.444 25.5789 19.7434 25.9734 20.6184 25.9734C21.3409 25.9734 21.829 25.599 22.0054 25.0096C22.1601 24.4921 22.0376 23.8918 21.7049 23.5599C21.3609 23.222 20.7285 23.0605 19.8707 23.0328ZM9.90684 28.1925V28.178L9.91206 28.1644C9.97089 28.0124 10.0464 27.8674 10.1371 27.7321C10.309 27.4677 10.5457 27.1896 10.839 26.8935C10.9965 26.7348 11.1604 26.5801 11.3529 26.4066C11.3959 26.368 11.6707 26.1233 11.7221 26.0751L12.1709 25.6572L11.8447 26.1767C11.3497 26.9658 10.9021 27.534 10.5188 27.9044C10.3777 28.041 10.2536 28.1415 10.1531 28.2062C10.12 28.2283 10.0849 28.2474 10.0483 28.2632C10.0318 28.27 10.0173 28.2741 10.0029 28.2753C9.9876 28.2772 9.97209 28.2751 9.95787 28.2692C9.94275 28.2629 9.92983 28.2522 9.92075 28.2386C9.91167 28.2249 9.90684 28.2089 9.90684 28.1925ZM14.9669 19.4223L14.8761 19.583L14.8199 19.4071C14.6953 19.0121 14.6037 18.4171 14.5784 17.8803C14.5495 17.2696 14.5981 16.9031 14.7909 16.9031C15.0618 16.9031 15.1859 17.3371 15.1955 17.99C15.2044 18.5637 15.114 19.1608 14.9665 19.4223H14.9669ZM14.7335 21.7712L14.795 21.6084L14.8789 21.7611C15.3486 22.6145 15.9581 23.3265 16.6283 23.8227L16.773 23.9296L16.5966 23.9657C15.9405 24.1015 15.3293 24.3056 14.4936 24.6427C14.5808 24.6074 13.625 24.9987 13.3831 25.0915L13.1722 25.1723L13.2847 24.9762C13.7809 24.1124 14.2393 23.075 14.7331 21.7712H14.7335ZM21.0664 24.8352C20.7506 24.9597 20.0708 24.8484 18.8739 24.3374L18.5701 24.208L18.8996 24.1839C19.8358 24.1144 20.4987 24.1658 20.8852 24.3072C21.05 24.3675 21.1597 24.4434 21.2083 24.5302C21.2339 24.5713 21.2425 24.6207 21.2323 24.668C21.2221 24.7154 21.1939 24.7569 21.1536 24.7838C21.1281 24.8063 21.0985 24.8237 21.0664 24.8352Z" fill="#002C5F" fill-opacity="0.72"/>
</svg>
