<svg width="57" height="56" viewBox="0 0 57 56" fill="none" xmlns="http://www.w3.org/2000/svg">
<g id="grommet-icons:map-location">
<path id="Vector" d="M28.5 37.9705C28.5 37.9705 14.5 26.8335 14.5 16.3335C14.5 7.5835 21.5 2.3335 28.5 2.3335C35.5 2.3335 42.5 7.5835 42.5 16.3335C42.5 26.8335 28.5 37.9705 28.5 37.9705ZM30.8333 16.3335C30.8333 15.7147 30.5875 15.1212 30.1499 14.6836C29.7123 14.246 29.1188 14.0002 28.5 14.0002C27.8812 14.0002 27.2877 14.246 26.8501 14.6836C26.4125 15.1212 26.1667 15.7147 26.1667 16.3335C26.1667 16.9523 26.4125 17.5458 26.8501 17.9834C27.2877 18.421 27.8812 18.6668 28.5 18.6668C29.1188 18.6668 29.7123 18.421 30.1499 17.9834C30.5875 17.5458 30.8333 16.9523 30.8333 16.3335Z" stroke="#002C5F" stroke-width="1.55556"/>
<circle id="Ellipse 8" cx="28.5904" cy="16.4381" r="5.61812" fill="#627C9B" stroke="#002C5F" stroke-width="0.832314"/>
</g>
</svg>
