<svg width="57" height="56" viewBox="0 0 57 56" fill="none" xmlns="http://www.w3.org/2000/svg">
<g id="grommet-icons:map-location">
<path id="Vector" d="M42.2407 15.5557L54.1666 21.0002V51.3335L37.8333 44.3335M37.8333 44.3335L19.1666 51.3335M37.8333 44.3335V28.0002M19.1666 51.3335L2.83325 44.3335V14.0002L14.4999 18.6668M19.1666 51.3335V28.0002M28.4999 37.9705C28.4999 37.9705 14.4999 26.8335 14.4999 16.3335C14.4999 7.5835 21.4999 2.3335 28.4999 2.3335C35.4999 2.3335 42.4999 7.5835 42.4999 16.3335C42.4999 26.8335 28.4999 37.9705 28.4999 37.9705ZM30.8333 16.3335C30.8333 15.7147 30.5874 15.1212 30.1498 14.6836C29.7122 14.246 29.1188 14.0002 28.4999 14.0002C27.8811 14.0002 27.2876 14.246 26.85 14.6836C26.4124 15.1212 26.1666 15.7147 26.1666 16.3335C26.1666 16.9523 26.4124 17.5458 26.85 17.9834C27.2876 18.421 27.8811 18.6668 28.4999 18.6668C29.1188 18.6668 29.7122 18.421 30.1498 17.9834C30.5874 17.5458 30.8333 16.9523 30.8333 16.3335Z" stroke="#002C5F" stroke-width="1.55556"/>
</g>
</svg>
