<svg width="20" height="18" viewBox="0 0 20 18" fill="none" xmlns="http://www.w3.org/2000/svg">
<path id="Icon" d="M13.6 4.55556C13.6 3.72891 13.6 3.31559 13.508 2.97648C13.2583 2.05624 12.5306 1.33744 11.5988 1.09086C11.2555 1 10.837 1 10 1C9.16303 1 8.74454 1 8.40119 1.09086C7.46944 1.33744 6.74166 2.05624 6.492 2.97648C6.4 3.31559 6.4 3.72891 6.4 4.55556M3.88 17H16.12C17.1281 17 17.6321 17 18.0172 16.8062C18.3559 16.6358 18.6312 16.3638 18.8038 16.0293C19 15.649 19 15.1512 19 14.1556V7.4C19 6.40435 19 5.90653 18.8038 5.52624C18.6312 5.19173 18.3559 4.91976 18.0172 4.74932C17.6321 4.55556 17.1281 4.55556 16.12 4.55556H3.88C2.87191 4.55556 2.36786 4.55556 1.98282 4.74932C1.64413 4.91976 1.36876 5.19173 1.19619 5.52624C1 5.90653 1 6.40435 1 7.4V14.1556C1 15.1512 1 15.649 1.19619 16.0293C1.36876 16.3638 1.64413 16.6358 1.98282 16.8062C2.36786 17 2.87191 17 3.88 17Z" stroke="#43689B" stroke-width="1.5" stroke-linecap="round" stroke-linejoin="round"/>
</svg>
